<svg xmlns="http://www.w3.org/2000/svg" viewBox="0 0 64 64" role="img" aria-label="Orange sunburst">
  <rect width="64" height="64" fill="#F3F0E8"/>
  <g fill="#FF5D2E">
    <path d="M30.5 17 32 5 33.5 17Z"/>
    <path d="M30.5 17 32 5 33.5 17Z" transform="rotate(30 32 32)"/>
    <path d="M30.5 17 32 5 33.5 17Z" transform="rotate(60 32 32)"/>
    <path d="M30.5 17 32 5 33.5 17Z" transform="rotate(90 32 32)"/>
    <path d="M30.5 17 32 5 33.5 17Z" transform="rotate(120 32 32)"/>
    <path d="M30.5 17 32 5 33.5 17Z" transform="rotate(150 32 32)"/>
    <path d="M30.5 17 32 5 33.5 17Z" transform="rotate(180 32 32)"/>
    <path d="M30.5 17 32 5 33.5 17Z" transform="rotate(210 32 32)"/>
    <path d="M30.5 17 32 5 33.5 17Z" transform="rotate(240 32 32)"/>
    <path d="M30.5 17 32 5 33.5 17Z" transform="rotate(270 32 32)"/>
    <path d="M30.5 17 32 5 33.5 17Z" transform="rotate(300 32 32)"/>
    <path d="M30.5 17 32 5 33.5 17Z" transform="rotate(330 32 32)"/>
    <circle cx="32" cy="32" r="10.5"/>
  </g>
</svg>
